<svg version="1.1" viewBox="0.0 0.0 509.62204724409446 535.01312335958" fill="none" stroke="none" stroke-linecap="square" stroke-miterlimit="10" xmlns:xlink="http://www.w3.org/1999/xlink" xmlns="http://www.w3.org/2000/svg"><clipPath id="p.0"><path d="m0 0l509.62204 0l0 535.0131l-509.62204 0l0 -535.0131z" clip-rule="nonzero"/></clipPath><g clip-path="url(#p.0)"><path fill="#000000" fill-opacity="0.0" d="m0 0l509.62204 0l0 535.0131l-509.62204 0z" fill-rule="evenodd"/><g filter="url(#shadowFilter-p.1)"><use xlink:href="#p.1" transform="matrix(1.0 0.0 0.0 1.0 0.017452494053077198 0.9998474922080053)"/></g><defs><filter id="shadowFilter-p.1" filterUnits="userSpaceOnUse"><feGaussianBlur in="SourceAlpha" stdDeviation="2.5" result="blur"/><feComponentTransfer in="blur" color-interpolation-filters="sRGB"><feFuncR type="linear" slope="0" intercept="0.0"/><feFuncG type="linear" slope="0" intercept="0.0"/><feFuncB type="linear" slope="0" intercept="0.0"/><feFuncA type="linear" slope="0.2" intercept="0"/></feComponentTransfer></filter></defs><g id="p.1"><defs><linearGradient id="p.2" gradientUnits="userSpaceOnUse" gradientTransform="matrix(5.934047760401392 -3.4261245730733076 3.4261245730733076 5.934047760401392 0.0 0.0)" spreadMethod="pad" x1="28.3300400972519" y1="35.435665328486415" x2="28.330019149399558" y2="41.36971308885083"><stop offset="0.0" stop-color="#cfe2f3"/><stop offset="1.0" stop-color="#3d85c6"/></linearGradient></defs><path fill="url(#p.2)" d="m289.5189 113.21481l35.349182 -20.409447l20.330688 35.21279l-35.34915 20.40944z" fill-rule="evenodd"/></g><g filter="url(#shadowFilter-p.3)"><use xlink:href="#p.3" transform="matrix(1.0 0.0 0.0 1.0 1.0 0.0)"/></g><defs><filter id="shadowFilter-p.3" filterUnits="userSpaceOnUse"><feGaussianBlur in="SourceAlpha" stdDeviation="5.0" result="blur"/><feComponentTransfer in="blur" color-interpolation-filters="sRGB"><feFuncR type="linear" slope="0" intercept="0.0"/><feFuncG type="linear" slope="0" intercept="0.0"/><feFuncB type="linear" slope="0" intercept="0.0"/><feFuncA type="linear" slope="0.3" intercept="0"/></feComponentTransfer></filter></defs><g id="p.3"><defs><linearGradient id="p.4" gradientUnits="userSpaceOnUse" gradientTransform="matrix(16.23331282506758 -9.372582462456265 9.372582462456265 16.23331282506758 0.0 0.0)" spreadMethod="pad" x1="-3.524880848565264" y1="13.495567185062006" x2="-3.5249396467356133" y2="29.728880010023097"><stop offset="0.0" stop-color="#6fa8dc"/><stop offset="1.0" stop-color="#0b5394"/></linearGradient></defs><path fill="url(#p.4)" d="m359.6972 143.16559l126.71469 219.46988l-264.996 152.99997l-126.71471 -219.46985l131.52426 -75.93779l-25.4328 -44.04962l44.425797 -25.649994l50.753876 87.9057l45.00882 -25.986618l-25.20932 -43.662537z" fill-rule="evenodd"/></g><g filter="url(#shadowFilter-p.5)"><use xlink:href="#p.5" transform="matrix(1.0 0.0 0.0 1.0 0.017452494053077198 0.9998474922080053)"/></g><defs><filter id="shadowFilter-p.5" filterUnits="userSpaceOnUse"><feGaussianBlur in="SourceAlpha" stdDeviation="2.5" result="blur"/><feComponentTransfer in="blur" color-interpolation-filters="sRGB"><feFuncR type="linear" slope="0" intercept="0.0"/><feFuncG type="linear" slope="0" intercept="0.0"/><feFuncB type="linear" slope="0" intercept="0.0"/><feFuncA type="linear" slope="0.2" intercept="0"/></feComponentTransfer></filter></defs><g id="p.5"><defs><linearGradient id="p.6" gradientUnits="userSpaceOnUse" gradientTransform="matrix(5.934046264126035 -3.4261237091729866 3.4261237091729866 5.934046264126035 0.0 0.0)" spreadMethod="pad" x1="25.051625227423045" y1="28.497013636164017" x2="25.05160427956542" y2="34.43105990025308"><stop offset="0.0" stop-color="#cfe2f3"/><stop offset="1.0" stop-color="#3d85c6"/></linearGradient></defs><path fill="url(#p.6)" d="m246.29187 83.27276l35.349182 -20.409447l20.330688 35.212784l-35.34915 20.409454z" fill-rule="evenodd"/></g><g filter="url(#shadowFilter-p.7)"><use xlink:href="#p.7" transform="matrix(1.0 0.0 0.0 1.0 0.017452494053077198 0.9998474922080053)"/></g><defs><filter id="shadowFilter-p.7" filterUnits="userSpaceOnUse"><feGaussianBlur in="SourceAlpha" stdDeviation="2.5" result="blur"/><feComponentTransfer in="blur" color-interpolation-filters="sRGB"><feFuncR type="linear" slope="0" intercept="0.0"/><feFuncG type="linear" slope="0" intercept="0.0"/><feFuncB type="linear" slope="0" intercept="0.0"/><feFuncA type="linear" slope="0.2" intercept="0"/></feComponentTransfer></filter></defs><g id="p.7"><defs><linearGradient id="p.8" gradientUnits="userSpaceOnUse" gradientTransform="matrix(5.934046264128772 -3.426123709174566 3.426123709174566 5.934046264128772 0.0 0.0)" spreadMethod="pad" x1="16.78731085202258" y1="29.503157193126683" x2="16.78728840788941" y2="35.43720345721301"><stop offset="0.0" stop-color="#cfe2f3"/><stop offset="1.0" stop-color="#3d85c6"/></linearGradient></defs><path fill="url(#p.8)" d="m200.69821 117.55782l35.349167 -20.409447l20.330704 35.212784l-35.349167 20.409454z" fill-rule="evenodd"/></g><g filter="url(#shadowFilter-p.9)"><use xlink:href="#p.9" transform="matrix(1.0 0.0 0.0 1.0 0.017452494053077198 0.9998474922080053)"/></g><defs><filter id="shadowFilter-p.9" filterUnits="userSpaceOnUse"><feGaussianBlur in="SourceAlpha" stdDeviation="2.5" result="blur"/><feComponentTransfer in="blur" color-interpolation-filters="sRGB"><feFuncR type="linear" slope="0" intercept="0.0"/><feFuncG type="linear" slope="0" intercept="0.0"/><feFuncB type="linear" slope="0" intercept="0.0"/><feFuncA type="linear" slope="0.2" intercept="0"/></feComponentTransfer></filter></defs><g id="p.9"><defs><linearGradient id="p.10" gradientUnits="userSpaceOnUse" gradientTransform="matrix(5.934047760509393 -3.4261245726399077 3.4261245726399077 5.934047760509393 0.0 0.0)" spreadMethod="pad" x1="-5.050882565039089" y1="33.163370986713836" x2="-5.0509038869602225" y2="39.097418747184925"><stop offset="0.0" stop-color="#cfe2f3"/><stop offset="1.0" stop-color="#3d85c6"/></linearGradient></defs><path fill="url(#p.10)" d="m83.649734 214.09811l35.349167 -20.409454l20.330704 35.212784l-35.34916 20.409454z" fill-rule="evenodd"/></g><g filter="url(#shadowFilter-p.11)"><use xlink:href="#p.11" transform="matrix(1.0 0.0 0.0 1.0 0.017452494053077198 0.9998474922080053)"/></g><defs><filter id="shadowFilter-p.11" filterUnits="userSpaceOnUse"><feGaussianBlur in="SourceAlpha" stdDeviation="2.5" result="blur"/><feComponentTransfer in="blur" color-interpolation-filters="sRGB"><feFuncR type="linear" slope="0" intercept="0.0"/><feFuncG type="linear" slope="0" intercept="0.0"/><feFuncB type="linear" slope="0" intercept="0.0"/><feFuncA type="linear" slope="0.2" intercept="0"/></feComponentTransfer></filter></defs><g id="p.11"><defs><linearGradient id="p.12" gradientUnits="userSpaceOnUse" gradientTransform="matrix(5.934047760402736 -3.4261245730740835 3.4261245730740835 5.934047760402736 0.0 0.0)" spreadMethod="pad" x1="3.777243416780415" y1="25.640611171196095" x2="3.77722172079049" y2="31.574658931559167"><stop offset="0.0" stop-color="#cfe2f3"/><stop offset="1.0" stop-color="#3d85c6"/></linearGradient></defs><path fill="url(#p.12)" d="m110.26234 139.21143l35.349174 -20.409447l20.330704 35.21279l-35.349167 20.40944z" fill-rule="evenodd"/></g><g filter="url(#shadowFilter-p.13)"><use xlink:href="#p.13" transform="matrix(1.0 0.0 0.0 1.0 0.017452494053077198 0.9998474922080053)"/></g><defs><filter id="shadowFilter-p.13" filterUnits="userSpaceOnUse"><feGaussianBlur in="SourceAlpha" stdDeviation="2.5" result="blur"/><feComponentTransfer in="blur" color-interpolation-filters="sRGB"><feFuncR type="linear" slope="0" intercept="0.0"/><feFuncG type="linear" slope="0" intercept="0.0"/><feFuncB type="linear" slope="0" intercept="0.0"/><feFuncA type="linear" slope="0.2" intercept="0"/></feComponentTransfer></filter></defs><g id="p.13"><defs><linearGradient id="p.14" gradientUnits="userSpaceOnUse" gradientTransform="matrix(5.934046264209993 -3.426123708836765 3.426123708836765 5.934046264209993 0.0 0.0)" spreadMethod="pad" x1="5.109642579238915" y1="33.163259646711126" x2="5.109621257312405" y2="39.09730591088281"><stop offset="0.0" stop-color="#cfe2f3"/><stop offset="1.0" stop-color="#3d85c6"/></linearGradient></defs><path fill="url(#p.14)" d="m143.94235 179.28618l35.349167 -20.409454l20.330719 35.2128l-35.349167 20.40944z" fill-rule="evenodd"/></g><g filter="url(#shadowFilter-p.15)"><use xlink:href="#p.15" transform="matrix(1.0 0.0 0.0 1.0 0.0 1.0)"/></g><defs><filter id="shadowFilter-p.15" filterUnits="userSpaceOnUse"><feGaussianBlur in="SourceAlpha" stdDeviation="2.5" result="blur"/><feComponentTransfer in="blur" color-interpolation-filters="sRGB"><feFuncR type="linear" slope="0" intercept="0.0"/><feFuncG type="linear" slope="0" intercept="0.0"/><feFuncB type="linear" slope="0" intercept="0.0"/><feFuncA type="linear" slope="0.2" intercept="0"/></feComponentTransfer></filter></defs><g id="p.15"><defs><linearGradient id="p.16" gradientUnits="userSpaceOnUse" gradientTransform="matrix(6.267135425196483 -3.6184384672140735 3.6184384672140735 6.267135425196483 0.0 0.0)" spreadMethod="pad" x1="-8.254270621638263" y1="22.232898235941438" x2="-8.254293289648963" y2="28.50003366109693"><stop offset="0.0" stop-color="#ffffff"/><stop offset="1.0" stop-color="#9fc5e8"/></linearGradient></defs><path fill="url(#p.16)" d="m28.717823 169.20428l39.27685 -22.677155l22.677162 39.27684l-39.276848 22.67717z" fill-rule="evenodd"/></g><g filter="url(#shadowFilter-p.17)"><use xlink:href="#p.17" transform="matrix(1.0 0.0 0.0 1.0 0.0 1.0)"/></g><defs><filter id="shadowFilter-p.17" filterUnits="userSpaceOnUse"><feGaussianBlur in="SourceAlpha" stdDeviation="2.5" result="blur"/><feComponentTransfer in="blur" color-interpolation-filters="sRGB"><feFuncR type="linear" slope="0" intercept="0.0"/><feFuncG type="linear" slope="0" intercept="0.0"/><feFuncB type="linear" slope="0" intercept="0.0"/><feFuncA type="linear" slope="0.2" intercept="0"/></feComponentTransfer></filter></defs><g id="p.17"><defs><linearGradient id="p.18" gradientUnits="userSpaceOnUse" gradientTransform="matrix(6.267135425208072 -3.618438467167981 3.618438467167981 6.267135425208072 0.0 0.0)" spreadMethod="pad" x1="1.052828684876129" y1="30.022179245741466" x2="1.0528059283185107" y2="36.289314670908226"><stop offset="0.0" stop-color="#ffffff"/><stop offset="1.0" stop-color="#9fc5e8"/></linearGradient></defs><path fill="url(#p.18)" d="m115.23171 184.34361l39.276848 -22.67717l22.67717 39.276855l-39.276855 22.67717z" fill-rule="evenodd"/></g><g filter="url(#shadowFilter-p.19)"><use xlink:href="#p.19" transform="matrix(1.0 0.0 0.0 1.0 0.0 1.0)"/></g><defs><filter id="shadowFilter-p.19" filterUnits="userSpaceOnUse"><feGaussianBlur in="SourceAlpha" stdDeviation="2.5" result="blur"/><feComponentTransfer in="blur" color-interpolation-filters="sRGB"><feFuncR type="linear" slope="0" intercept="0.0"/><feFuncG type="linear" slope="0" intercept="0.0"/><feFuncB type="linear" slope="0" intercept="0.0"/><feFuncA type="linear" slope="0.2" intercept="0"/></feComponentTransfer></filter></defs><g id="p.19"><defs><linearGradient id="p.20" gradientUnits="userSpaceOnUse" gradientTransform="matrix(6.267134716832538 -3.6184380581751783 3.6184380581751783 6.267134716832538 0.0 0.0)" spreadMethod="pad" x1="11.217304615747334" y1="22.825883225187887" x2="11.21728194773407" y2="29.09301794197943"><stop offset="0.0" stop-color="#ffffff"/><stop offset="1.0" stop-color="#9fc5e8"/></linearGradient></defs><path fill="url(#p.20)" d="m152.89449 102.4639l39.276855 -22.677162l22.677155 39.276848l-39.27684 22.67717z" fill-rule="evenodd"/></g><g filter="url(#shadowFilter-p.21)"><use xlink:href="#p.21" transform="matrix(1.0 0.0 0.0 1.0 0.0 1.0)"/></g><defs><filter id="shadowFilter-p.21" filterUnits="userSpaceOnUse"><feGaussianBlur in="SourceAlpha" stdDeviation="2.5" result="blur"/><feComponentTransfer in="blur" color-interpolation-filters="sRGB"><feFuncR type="linear" slope="0" intercept="0.0"/><feFuncG type="linear" slope="0" intercept="0.0"/><feFuncB type="linear" slope="0" intercept="0.0"/><feFuncA type="linear" slope="0.2" intercept="0"/></feComponentTransfer></filter></defs><g id="p.21"><defs><linearGradient id="p.22" gradientUnits="userSpaceOnUse" gradientTransform="matrix(6.267135425207911 -3.618438467167888 3.618438467167888 6.267135425207911 0.0 0.0)" spreadMethod="pad" x1="27.177771761419123" y1="24.443797158230527" x2="27.17774909340842" y2="30.710932583397444"><stop offset="0.0" stop-color="#ffffff"/><stop offset="1.0" stop-color="#9fc5e8"/></linearGradient></defs><path fill="url(#p.22)" d="m258.77524 54.85163l39.276825 -22.677166l22.677185 39.27685l-39.276855 22.677162z" fill-rule="evenodd"/></g><g filter="url(#shadowFilter-p.23)"><use xlink:href="#p.23" transform="matrix(1.0 0.0 0.0 1.0 0.0 1.0)"/></g><defs><filter id="shadowFilter-p.23" filterUnits="userSpaceOnUse"><feGaussianBlur in="SourceAlpha" stdDeviation="2.5" result="blur"/><feComponentTransfer in="blur" color-interpolation-filters="sRGB"><feFuncR type="linear" slope="0" intercept="0.0"/><feFuncG type="linear" slope="0" intercept="0.0"/><feFuncB type="linear" slope="0" intercept="0.0"/><feFuncA type="linear" slope="0.2" intercept="0"/></feComponentTransfer></filter></defs><g id="p.23"><defs><linearGradient id="p.24" gradientUnits="userSpaceOnUse" gradientTransform="matrix(6.26713684195842 -3.6184392851531704 3.6184392851531704 6.26713684195842 0.0 0.0)" spreadMethod="pad" x1="19.089272945325703" y1="34.21439057684157" x2="19.089250277320126" y2="40.481527418759"><stop offset="0.0" stop-color="#ffffff"/><stop offset="1.0" stop-color="#9fc5e8"/></linearGradient></defs><path fill="url(#p.24)" d="m243.43787 145.35304l39.276855 -22.677162l22.677155 39.276848l-39.276855 22.67717z" fill-rule="evenodd"/></g><g filter="url(#shadowFilter-p.25)"><use xlink:href="#p.25" transform="matrix(1.0 0.0 0.0 1.0 0.0 1.0)"/></g><defs><filter id="shadowFilter-p.25" filterUnits="userSpaceOnUse"><feGaussianBlur in="SourceAlpha" stdDeviation="2.5" result="blur"/><feComponentTransfer in="blur" color-interpolation-filters="sRGB"><feFuncR type="linear" slope="0" intercept="0.0"/><feFuncG type="linear" slope="0" intercept="0.0"/><feFuncB type="linear" slope="0" intercept="0.0"/><feFuncA type="linear" slope="0.2" intercept="0"/></feComponentTransfer></filter></defs><g id="p.25"><defs><linearGradient id="p.26" gradientUnits="userSpaceOnUse" gradientTransform="matrix(6.267138258617188 -3.6184401035077305 3.6184401035077305 6.267138258617188 0.0 0.0)" spreadMethod="pad" x1="29.225450626265918" y1="44.70853081776895" x2="29.225427958265463" y2="50.97566907634515"><stop offset="0.0" stop-color="#ffffff"/><stop offset="1.0" stop-color="#9fc5e8"/></linearGradient></defs><path fill="url(#p.26)" d="m344.93515 174.44415l39.276855 -22.67717l22.677185 39.276855l-39.276855 22.677155z" fill-rule="evenodd"/></g><g filter="url(#shadowFilter-p.27)"><use xlink:href="#p.27" transform="matrix(1.0 0.0 0.0 1.0 1.0 0.0)"/></g><defs><filter id="shadowFilter-p.27" filterUnits="userSpaceOnUse"><feGaussianBlur in="SourceAlpha" stdDeviation="5.0" result="blur"/><feComponentTransfer in="blur" color-interpolation-filters="sRGB"><feFuncR type="linear" slope="0" intercept="0.0"/><feFuncG type="linear" slope="0" intercept="0.0"/><feFuncB type="linear" slope="0" intercept="0.0"/><feFuncA type="linear" slope="0.3" intercept="0"/></feComponentTransfer></filter></defs><g id="p.27"><defs><linearGradient id="p.28" gradientUnits="userSpaceOnUse" gradientTransform="matrix(17.159286035290652 -9.907209027304255 9.907209027304255 17.159286035290652 0.0 0.0)" spreadMethod="pad" x1="-4.189940084240858" y1="10.965033119251945" x2="-4.190002436233744" y2="28.124319154429312"><stop offset="0.0" stop-color="#d4e5f5"/><stop offset="1.0" stop-color="#70a4d5"/></linearGradient></defs><path fill="url(#p.28)" d="m36.95304 229.53915l48.280067 -27.875336l28.250656 48.930145l98.724 -57.0l28.5 49.362l97.858 -56.5l28.249329 48.927856l49.146088 -28.37532l85.0 147.21999l-294.22406 169.87534z" fill-rule="evenodd"/></g><g filter="url(#shadowFilter-p.29)"><use xlink:href="#p.29" transform="matrix(1.0 0.0 0.0 1.0 1.0 0.0)"/></g><defs><filter id="shadowFilter-p.29" filterUnits="userSpaceOnUse"><feGaussianBlur in="SourceAlpha" stdDeviation="5.0" result="blur"/><feComponentTransfer in="blur" color-interpolation-filters="sRGB"><feFuncR type="linear" slope="0" intercept="0.0"/><feFuncG type="linear" slope="0" intercept="0.0"/><feFuncB type="linear" slope="0" intercept="0.0"/><feFuncA type="linear" slope="0.61" intercept="0"/></feComponentTransfer></filter></defs><g id="p.29"><path fill="#000000" fill-opacity="0.0" d="m94.86614 315.59055l279.52756 -161.38582l112.37796 194.64568l-279.5276 161.3858z" fill-rule="evenodd"/><path fill="#ffffff" d="m146.57727 327.18158l23.63977 -13.648468q5.23674 -3.023468 11.03624 -5.884674q5.791687 -2.8747559 11.789307 -4.7677917q6.0033417 -1.9144287 12.108124 -2.3718567q6.1183167 -0.46524048 11.919312 1.3636475q5.800995 1.8288879 11.230133 6.326233q5.429138 4.4973145 10.069748 12.535126l4.320282 7.483032q3.5390472 6.1298523 4.7486725 12.287506q1.20961 6.157654 0.5794678 11.753723q-0.6166382 5.588257 -2.8399353 10.299896q-2.2097626 4.703827 -5.556381 7.8448486l0.4140625 0.7171631q12.643066 -4.539032 23.539764 0.89715576q10.896698 5.4362183 18.818542 19.157318l4.5312195 7.8483887q4.8437195 8.389618 6.5601807 15.643921q1.7221985 7.2329407 0.9111023 13.546875q-0.8053589 6.292633 -3.78891 11.749939q-2.991394 5.4437866 -7.584717 10.206665q-4.6011353 4.7493896 -10.481934 8.938538q-5.888611 4.1756287 -12.464996 7.9725037l-24.546387 14.1719055l-88.95267 -154.0716zm65.49875 50.10385q4.695465 -2.7109375 7.9170837 -6.068451q3.2273407 -3.3788452 4.5992584 -7.3463745q1.377655 -3.988861 0.6552124 -8.677704q-0.7302704 -4.702362 -3.8552551 -10.115021l-3.6405945 -6.305786q-3.1249847 -5.4126587 -6.605942 -8.941864q-3.480957 -3.5292358 -7.6348267 -4.9739685q-4.1403503 -1.4525757 -9.018616 -0.62072754q-4.864731 0.82403564 -10.642746 4.159973l-4.506027 2.6015625l28.22641 48.889923l4.5060425 -2.6015625zm43.672653 70.64377q4.6954803 -2.710968 7.8217926 -6.13974q3.1263428 -3.4288025 4.388916 -7.5857544q1.276062 -4.1647644 0.47549438 -8.988922q-0.8083801 -4.8377075 -3.9333496 -10.250366l-6.9218445 -11.989075q-3.1249847 -5.4126587 -6.6293793 -8.982483q-3.5043945 -3.5697937 -7.6348267 -4.973938q-4.116913 -1.4119873 -8.941055 -0.61138916q-4.8241425 0.80059814 -10.602142 4.1365356l-6.671097 3.8515625l31.976395 55.38513l6.671097 -3.8515625zm-14.722885 -175.27768l23.36914 -13.492218l88.95267 154.0716l-23.36914 13.492218l-88.95267 -154.0716zm173.53864 107.03992q-3.6941223 2.132843 -8.368011 4.037445q-4.666046 1.9181519 -10.008728 2.4768372q-5.3291626 0.5508728 -11.253326 -0.647583q-5.9319763 -1.2120056 -12.230743 -5.153137q-6.2987976 -3.941101 -12.9244995 -11.229736q-6.619995 -7.309967 -13.29184 -18.866028l-31.50766 -54.57321q-6.7187195 -11.637238 -9.644012 -20.954071q-2.9117737 -9.3246155 -3.0900574 -16.727234q-0.18612671 -7.416153 1.8161926 -13.010574q1.9945068 -5.607956 5.254883 -9.835831q3.2738953 -4.2356873 7.196808 -7.222275q3.936432 -2.9943848 7.535858 -5.072525q3.4370117 -1.984375 7.9208984 -3.9055786q4.4760437 -1.9347382 9.639587 -2.6786957q5.155731 -0.7574768 11.018921 0.24163818q5.86322 0.99913025 12.192688 4.868393q6.329468 3.869278 12.990082 11.1558075q6.6662903 7.2651978 13.486572 19.078339l31.50766 54.573227q6.6171265 11.461334 9.488312 20.809387q2.8711853 9.3480835 3.111969 16.858948q0.246521 7.4895325 -1.7645569 13.287506q-2.018921 5.784424 -5.088745 10.154846q-3.0776062 4.356903 -6.8724365 7.3778076q-3.7734985 3.0266113 -7.115814 4.956299zm-10.156189 -17.591156q3.4370422 -1.984375 5.3361816 -4.632477q1.8913269 -2.6616516 1.8916321 -6.504822q-0.0074768066 -3.85672 -1.8893433 -9.084991q-1.8683167 -5.236084 -6.032379 -12.448456l-40.468536 -70.094055q-4.273407 -7.401825 -7.9987793 -11.854416q-3.7196655 -4.473938 -7.126251 -6.5305634q-3.4143677 -2.07016 -6.7119446 -1.844223q-3.297577 0.22593689 -6.7345886 2.210312q-3.518219 2.03125 -5.40329 4.797516q-1.8850403 2.7662659 -1.8535767 6.789551q0.02368164 4.009735 2.0383606 9.468048q2.0068665 5.4447937 6.2802734 12.846619l40.468536 70.094055q4.164032 7.212372 7.750885 11.456268q3.586853 4.2438965 6.9772644 6.1474915q3.3825684 1.8900452 6.6738586 1.5594788q3.2834778 -0.3440857 6.801697 -2.3753357z" fill-rule="nonzero"/></g></g></svg>